<svg data-v-423bf9ae="" xmlns="http://www.w3.org/2000/svg" viewBox="0 0 332 90" class="iconLeftSlogan"><!----><!----><defs data-v-423bf9ae=""><linearGradient data-v-423bf9ae="" gradientTransform="rotate(25)" id="dcda1c32-8a4a-402a-a938-928486463455" x1="0%" y1="0%" x2="100%" y2="0%"><stop data-v-423bf9ae="" offset="0%" style="stop-color: rgb(0, 0, 0); stop-opacity: 1;"></stop><stop data-v-423bf9ae="" offset="100%" style="stop-color: rgb(63, 134, 224); stop-opacity: 1;"></stop></linearGradient></defs><g data-v-423bf9ae="" id="5b53112d-99ae-4e0e-b5a6-9a16a18bce0d" fill="url(#dcda1c32-8a4a-402a-a938-928486463455)" transform="matrix(5.244754999912469,0,0,5.244754999912469,89.1875734039024,-11.905593272928385)"><path d="M0.94 2.51L0.94 11.37L3.89 11.37C6.12 11.37 7.64 9.59 7.64 6.93C7.64 4.27 6.12 2.51 3.89 2.51ZM2.10 2.97L3.65 2.97C5.33 2.97 6.41 4.35 6.41 6.94C6.41 9.52 5.33 10.91 3.65 10.91L2.10 10.91ZM10.29 3.14L10.29 2.55C10.29 2.41 10.23 2.27 9.88 2.27L9.42 2.27C9.07 2.27 9.02 2.44 9.02 2.55L9.02 3.14C9.02 3.25 9.07 3.43 9.42 3.43L9.88 3.43C10.23 3.43 10.29 3.28 10.29 3.14ZM9.07 11.37L10.23 11.37L10.23 4.83L9.07 4.83ZM17.70 4.84L16.91 4.72L16.59 5.59L15.32 5.07C14.81 4.86 14.35 4.72 13.93 4.72C12.57 4.72 11.69 6.08 11.69 8.11C11.69 10.14 12.57 11.48 13.93 11.48C14.35 11.48 14.81 11.33 15.32 11.13L16.52 10.64L16.52 11.76C16.52 12.71 15.99 13.23 14.99 13.23C14.17 13.23 13.09 13.01 12.59 13.01L12.59 13.69L15.47 13.71C16.81 13.71 17.70 12.88 17.70 11.68ZM16.52 5.95L16.52 10.26L15.09 10.72C14.71 10.85 14.48 10.89 14.27 10.89C13.41 10.89 12.91 9.83 12.91 8.11C12.91 6.38 13.41 5.32 14.27 5.32C14.48 5.32 14.71 5.35 15.09 5.47ZM20.34 7.41C20.48 5.96 21.03 5.18 22.22 5.18C23.37 5.18 24.05 5.94 24.05 7.38ZM20.30 7.87L25.23 7.95L25.23 7.42C25.23 5.80 24.05 4.72 22.30 4.72C20.37 4.72 19.08 6.06 19.08 8.08C19.08 10.12 20.40 11.48 22.37 11.48C23.49 11.48 24.68 10.96 25.06 10.78L24.82 10.15L23.63 10.70C23.32 10.84 22.82 11.02 22.48 11.02C21.07 11.02 20.30 9.97 20.30 8.04ZM26.67 11.37L27.83 11.37L27.83 5.94L29.55 5.39C29.75 5.33 30.14 5.25 30.38 5.25C31.01 5.25 31.33 5.68 31.33 6.48L31.33 11.37L32.49 11.37L32.49 6.34C32.49 5.36 31.78 4.72 30.70 4.72C30.30 4.72 29.86 4.76 29.29 4.98L27.79 5.57L27.45 4.77L26.67 4.83ZM39.06 5.10C38.68 4.91 37.67 4.72 37.02 4.72C35.10 4.72 33.82 6.08 33.82 8.11C33.82 10.14 35.10 11.48 37.02 11.48C37.67 11.48 38.68 11.28 39.06 11.10L38.79 10.47L37.83 10.85C37.65 10.92 37.28 11.02 37.13 11.02C35.84 11.02 35.07 10.00 35.07 8.11C35.07 6.22 35.84 5.18 37.13 5.18C37.28 5.18 37.65 5.28 37.83 5.35L38.79 5.73ZM39.83 4.83L42.55 11.45C42.66 11.73 42.77 12.11 42.77 12.40C42.77 12.57 42.73 12.75 42.62 12.88C42.45 13.09 42.14 13.23 41.66 13.23L41.61 13.23C41.12 13.23 40.67 13.01 40.35 13.01L40.35 13.71L41.66 13.71C42.77 13.71 43.12 13.19 43.43 12.35L46.19 4.83L45.21 4.72C45.21 5.01 44.83 7.15 44.02 9.39L43.46 10.96L43.43 10.96C43.40 10.88 43.39 10.72 43.23 10.36L41.05 4.72Z"></path></g><!----><g data-v-423bf9ae="" id="05a0ec36-1894-4022-8774-49645fd33e65" transform="matrix(1.3235294117647058,0,0,1.3235294117647058,0.9411764705882391,0)" stroke="none" fill="#3E8FDA"><path d="M47 68c-4.777 0-9-6.143-9-14s4.223-14 9-14 9 6.143 9 14-4.223 14-9 14zm0-40c-4.777 0-9-6.143-9-14s4.223-14 9-14 9 6.143 9 14-4.223 14-9 14zM38.782 0C35.835 3.32 34 8.394 34 14s1.835 10.68 4.782 14H31a6 6 0 0 0 0 12h7.782C35.835 43.32 34 48.394 34 54s1.835 10.68 4.782 14H34C15.222 68 0 52.778 0 34S15.222 0 34 0h4.782z"></path></g><!----><g data-v-423bf9ae="" id="0b5b8e41-28c5-4fe0-8f8c-95394f9d5022" fill="#7D5555" transform="matrix(0.47560151600989187,0,0,0.47560151600989187,93.95594216147825,57.29382818782954)"><path d="M1.57 6.36L0.34 6.18L0.39 5.89L6.58 5.89L6.37 8.07L6.06 8.03L5.93 6.24L2.28 6.24L2.28 9.89L4.57 9.89L4.82 8.94L5.19 8.89L4.96 11.55L4.61 11.61L4.50 10.26L2.28 10.26L2.28 14.03L6.12 14.03L6.62 12.19L6.90 12.26L6.70 14.40L0.36 14.40L0.40 14.11L1.57 13.90L1.57 6.36ZM20.78 14.40L14.63 14.40L14.66 14.11L15.82 13.90L15.82 6.34L14.64 6.17L14.67 5.90L17.78 5.90L17.75 6.17L16.55 6.32L16.55 14.03L20.17 14.03L20.70 12.09L21 12.14L20.78 14.40ZM29.94 6.36L28.72 6.18L28.77 5.89L34.96 5.89L34.75 8.07L34.43 8.03L34.30 6.24L30.65 6.24L30.65 9.89L32.94 9.89L33.20 8.94L33.56 8.89L33.34 11.55L32.99 11.61L32.88 10.26L30.65 10.26L30.65 14.03L34.49 14.03L35 12.19L35.28 12.26L35.08 14.40L28.74 14.40L28.78 14.11L29.94 13.90L29.94 6.36ZM43.98 6.34L42.97 6.14L43.00 5.89L45.90 5.89L45.87 6.14L44.72 6.32L47.09 13.30L49.66 6.34L48.39 6.14L48.41 5.89L51.08 5.89L51.05 6.14L50.17 6.32L47.15 14.47L46.81 14.57L43.98 6.34ZM62.84 6.98L61.47 10.75L64.16 10.75L62.84 6.98ZM61.52 14.40L58.79 14.40L58.82 14.11L59.79 13.90L62.79 5.82L63.15 5.73L65.99 13.95L66.89 14.08L66.83 14.39L64.04 14.39L64.10 14.10L65.24 13.90L64.29 11.13L61.33 11.13L60.32 13.95L61.58 14.08L61.52 14.40ZM74.64 8.09L74.57 5.89L81.63 5.89L81.40 8.16L81.05 8.12L80.94 6.24L78.40 6.24L78.40 13.90L79.61 14.08L79.54 14.40L76.44 14.40L76.47 14.11L77.67 13.90L77.67 6.24L75.24 6.24L75.00 8.15L74.64 8.09ZM90.57 6.36L89.35 6.18L89.39 5.89L95.59 5.89L95.38 8.07L95.06 8.03L94.93 6.24L91.28 6.24L91.28 9.89L93.57 9.89L93.82 8.94L94.19 8.89L93.97 11.55L93.62 11.61L93.51 10.26L91.28 10.26L91.28 14.03L95.12 14.03L95.63 12.19L95.91 12.26L95.70 14.40L89.37 14.40L89.41 14.11L90.57 13.90L90.57 6.36ZM114.47 6.35L113.52 6.15L113.54 5.90L116.40 5.90L116.37 6.15L115.23 6.32L117.37 10.49L119.49 6.34L118.23 6.14L118.24 5.89L120.91 5.89L120.89 6.14L120.00 6.32L117.62 11.05L117.62 13.94L118.86 14.08L118.80 14.40L115.66 14.40L115.70 14.11L116.89 13.90L116.89 11.05L114.47 6.35ZM129.39 9.75L129.39 9.75L129.39 9.75Q129.39 11.03 129.75 12.01L129.75 12.01L129.75 12.01Q130.12 13.00 130.83 13.57L130.83 13.57L130.83 13.57Q131.55 14.14 132.53 14.14L132.53 14.14L132.53 14.14Q133.10 14.14 133.59 13.92L133.59 13.92L133.59 13.92Q134.09 13.70 134.43 13.33L134.43 13.33L134.43 13.33Q134.78 12.96 135.02 12.49L135.02 12.49L135.02 12.49Q135.26 12.01 135.38 11.50L135.38 11.50L135.38 11.50Q135.50 10.99 135.50 10.48L135.50 10.48L135.50 10.48Q135.50 8.50 134.64 7.29L134.64 7.29L134.64 7.29Q133.79 6.07 132.34 6.07L132.34 6.07L132.34 6.07Q131.76 6.07 131.27 6.28L131.27 6.28L131.27 6.28Q130.78 6.49 130.44 6.85L130.44 6.85L130.44 6.85Q130.09 7.21 129.86 7.69L129.86 7.69L129.86 7.69Q129.62 8.16 129.50 8.69L129.50 8.69L129.50 8.69Q129.39 9.21 129.39 9.75ZM128.64 10.16L128.64 10.16L128.64 10.16Q128.64 8.16 129.74 6.92L129.74 6.92L129.74 6.92Q130.83 5.69 132.67 5.69L132.67 5.69L132.67 5.69Q133.81 5.69 134.62 6.27L134.62 6.27L134.62 6.27Q135.44 6.86 135.84 7.84L135.84 7.84L135.84 7.84Q136.23 8.83 136.23 10.11L136.23 10.11L136.23 10.11Q136.23 10.75 136.08 11.38L136.08 11.38L136.08 11.38Q135.93 12.00 135.61 12.58L135.61 12.58L135.61 12.58Q135.28 13.17 134.82 13.61L134.82 13.61L134.82 13.61Q134.36 14.05 133.68 14.32L133.68 14.32L133.68 14.32Q133.01 14.58 132.20 14.58L132.20 14.58L132.20 14.58Q131.15 14.58 130.32 13.98L130.32 13.98L130.32 13.98Q129.50 13.37 129.07 12.37L129.07 12.37L129.07 12.37Q128.64 11.37 128.64 10.16ZM145.17 6.33L143.93 6.16L143.96 5.89L147.06 5.89L147.03 6.16L145.88 6.32L145.88 11.01L145.88 11.01Q145.88 11.87 146.06 12.49L146.06 12.49L146.06 12.49Q146.24 13.10 146.59 13.45L146.59 13.45L146.59 13.45Q146.94 13.79 147.39 13.95L147.39 13.95L147.39 13.95Q147.83 14.11 148.42 14.11L148.42 14.11L148.42 14.11Q149.60 14.11 150.24 13.40L150.24 13.40L150.24 13.40Q150.88 12.68 150.88 11.33L150.88 11.33L150.88 6.33L149.61 6.16L149.65 5.89L152.55 5.89L152.50 6.16L151.36 6.32L151.34 11.05L151.34 11.05Q151.33 12.78 150.60 13.68L150.60 13.68L150.60 13.68Q149.86 14.58 148.20 14.58L148.20 14.58L148.20 14.58Q147.70 14.58 147.27 14.49L147.27 14.49L147.27 14.49Q146.85 14.40 146.45 14.16L146.45 14.16L146.45 14.16Q146.06 13.93 145.78 13.56L145.78 13.56L145.78 13.56Q145.50 13.19 145.34 12.60L145.34 12.60L145.34 12.60Q145.17 12.01 145.17 11.24L145.17 11.24L145.17 6.33ZM162.05 6.18L162.05 10.11L163.60 10.11L163.60 10.11Q164.29 9.86 164.75 9.28L164.75 9.28L164.75 9.28Q165.20 8.70 165.20 8.02L165.20 8.02L165.20 8.02Q165.20 7.11 164.59 6.63L164.59 6.63L164.59 6.63Q163.97 6.15 162.88 6.15L162.88 6.15L162.05 6.18ZM163.43 14.40L160.23 14.40L160.28 14.11L161.35 13.90L161.35 6.51L160.25 6.37L160.32 6.13L160.32 6.13Q162.14 5.83 163.22 5.83L163.22 5.83L163.22 5.83Q163.99 5.83 164.60 6.05L164.60 6.05L164.60 6.05Q165.20 6.27 165.58 6.73L165.58 6.73L165.58 6.73Q165.96 7.19 165.96 7.83L165.96 7.83L165.96 7.83Q165.96 8.57 165.53 9.14L165.53 9.14L165.53 9.14Q165.10 9.72 164.07 10.23L164.07 10.23L164.07 10.23L165.39 12.19L165.39 12.19Q166.10 13.23 166.44 13.58L166.44 13.58L166.44 13.58Q166.79 13.92 167.17 14.05L167.17 14.05L167.50 14.16L167.46 14.42L167.46 14.42Q167.17 14.52 166.82 14.52L166.82 14.52L166.82 14.52Q166.54 14.52 166.28 14.40L166.28 14.40L166.28 14.40Q166.03 14.28 165.79 14.01L165.79 14.01L165.79 14.01Q165.55 13.75 165.36 13.48L165.36 13.48L165.36 13.48Q165.18 13.22 164.90 12.77L164.90 12.77L163.52 10.49L162.05 10.49L162.05 13.95L163.50 14.08L163.43 14.40ZM187.00 6.19L187.00 14.03L188.23 14.03L188.23 14.03Q190.03 14.03 191.13 12.95L191.13 12.95L191.13 12.95Q192.23 11.87 192.23 10.12L192.23 10.12L192.23 10.12Q192.23 8.20 191.17 7.18L191.17 7.18L191.17 7.18Q190.12 6.16 188.19 6.16L188.19 6.16L188.19 6.16Q187.19 6.16 187.00 6.19L187.00 6.19ZM188.04 14.40L185.10 14.40L185.15 14.11L186.31 13.90L186.31 6.51L185.13 6.36L185.20 6.12L185.20 6.12Q187.28 5.79 188.44 5.79L188.44 5.79L188.44 5.79Q189.40 5.79 190.18 6.03L190.18 6.03L190.18 6.03Q190.96 6.26 191.47 6.66L191.47 6.66L191.47 6.66Q191.98 7.05 192.32 7.59L192.32 7.59L192.32 7.59Q192.66 8.13 192.81 8.71L192.81 8.71L192.81 8.71Q192.96 9.29 192.96 9.92L192.96 9.92L192.96 9.92Q192.96 10.64 192.79 11.28L192.79 11.28L192.79 11.28Q192.62 11.93 192.24 12.50L192.24 12.50L192.24 12.50Q191.86 13.08 191.29 13.49L191.29 13.49L191.29 13.49Q190.73 13.91 189.90 14.15L189.90 14.15L189.90 14.15Q189.07 14.40 188.04 14.40L188.04 14.40ZM201.84 6.33L200.66 6.16L200.70 5.89L203.83 5.89L203.78 6.16L202.58 6.32L202.58 13.95L203.90 14.08L203.84 14.40L200.73 14.40L200.76 14.11L201.84 13.90L201.84 6.33ZM211.64 10.27L211.64 10.27L211.64 10.27Q211.64 9.64 211.81 9.00L211.81 9.00L211.81 9.00Q211.98 8.36 212.33 7.78L212.33 7.78L212.33 7.78Q212.68 7.21 213.16 6.75L213.16 6.75L213.16 6.75Q213.64 6.30 214.30 6.04L214.30 6.04L214.30 6.04Q214.97 5.77 215.73 5.77L215.73 5.77L215.73 5.77Q216.47 5.77 217.17 5.94L217.17 5.94L217.17 5.94Q217.88 6.11 218.35 6.47L218.35 6.47L218.14 8.64L217.83 8.61L217.62 6.99L217.62 6.99Q217.36 6.65 216.81 6.41L216.81 6.41L216.81 6.41Q216.26 6.17 215.50 6.17L215.50 6.17L215.50 6.17Q214.09 6.17 213.26 7.27L213.26 7.27L213.26 7.27Q212.42 8.37 212.42 10.07L212.42 10.07L212.42 10.07Q212.42 10.69 212.53 11.25L212.53 11.25L212.53 11.25Q212.64 11.81 212.89 12.34L212.89 12.34L212.89 12.34Q213.14 12.87 213.52 13.25L213.52 13.25L213.52 13.25Q213.90 13.63 214.49 13.86L214.49 13.86L214.49 13.86Q215.08 14.09 215.81 14.09L215.81 14.09L215.81 14.09Q216.87 14.09 217.59 13.59L217.59 13.59L217.60 11.03L215.95 10.86L216.00 10.60L219.28 10.60L219.23 10.86L218.31 11.01L218.31 13.86L218.31 13.86Q217.66 14.25 216.92 14.39L216.92 14.39L216.92 14.39Q216.19 14.53 215.10 14.53L215.10 14.53L215.10 14.53Q214.40 14.53 213.76 14.23L213.76 14.23L213.76 14.23Q213.13 13.93 212.66 13.39L212.66 13.39L212.66 13.39Q212.19 12.85 211.92 12.04L211.92 12.04L211.92 12.04Q211.64 11.23 211.64 10.27ZM228.11 6.33L226.93 6.16L226.97 5.89L230.09 5.89L230.04 6.16L228.85 6.32L228.85 13.95L230.17 14.08L230.10 14.40L226.99 14.40L227.03 14.11L228.11 13.90L228.11 6.33ZM237.94 8.09L237.87 5.89L244.93 5.89L244.69 8.16L244.35 8.12L244.23 6.24L241.70 6.24L241.70 13.90L242.91 14.08L242.83 14.40L239.74 14.40L239.77 14.11L240.97 13.90L240.97 6.24L238.53 6.24L238.29 8.15L237.94 8.09ZM256.70 6.98L255.34 10.75L258.02 10.75L256.70 6.98ZM255.38 14.40L252.66 14.40L252.69 14.11L253.66 13.90L256.66 5.82L257.02 5.73L259.85 13.95L260.76 14.08L260.70 14.39L257.91 14.39L257.97 14.10L259.10 13.90L258.15 11.13L255.20 11.13L254.19 13.95L255.45 14.08L255.38 14.40ZM274.61 14.40L268.46 14.40L268.50 14.11L269.65 13.90L269.65 6.34L268.47 6.17L268.50 5.90L271.61 5.90L271.58 6.17L270.38 6.32L270.38 14.03L274.00 14.03L274.53 12.09L274.83 12.14L274.61 14.40ZM295.87 14.40L292.46 14.40L292.50 14.11L293.58 13.90L293.58 6.51L292.47 6.36L292.53 6.12L292.53 6.12Q292.70 6.09 293.15 6.02L293.15 6.02L293.15 6.02Q293.60 5.94 293.83 5.91L293.83 5.91L293.83 5.91Q294.05 5.88 294.46 5.84L294.46 5.84L294.46 5.84Q294.88 5.81 295.29 5.81L295.29 5.81L295.29 5.81Q295.98 5.81 296.57 5.96L296.57 5.96L296.57 5.96Q297.16 6.10 297.62 6.40L297.62 6.40L297.62 6.40Q298.08 6.69 298.34 7.18L298.34 7.18L298.34 7.18Q298.60 7.66 298.60 8.29L298.60 8.29L298.60 8.29Q298.60 8.90 298.32 9.43L298.32 9.43L298.32 9.43Q298.04 9.97 297.58 10.33L297.58 10.33L297.58 10.33Q297.12 10.69 296.52 10.90L296.52 10.90L296.52 10.90Q295.91 11.10 295.28 11.10L295.28 11.10L295.28 11.10Q295.00 11.10 294.94 11.09L294.94 11.09L294.87 10.80L295.24 10.78L295.24 10.78Q295.90 10.75 296.40 10.55L296.40 10.55L296.40 10.55Q296.89 10.36 297.18 10.03L297.18 10.03L297.18 10.03Q297.47 9.70 297.61 9.30L297.61 9.30L297.61 9.30Q297.75 8.90 297.75 8.43L297.75 8.43L297.75 8.43Q297.75 7.98 297.59 7.57L297.59 7.57L297.59 7.57Q297.42 7.16 297.10 6.83L297.10 6.83L297.10 6.83Q296.78 6.50 296.25 6.31L296.25 6.31L296.25 6.31Q295.73 6.11 295.08 6.11L295.08 6.11L294.33 6.15L294.33 13.95L295.93 14.08L295.87 14.40ZM308.11 6.18L308.11 10.11L309.66 10.11L309.66 10.11Q310.34 9.86 310.80 9.28L310.80 9.28L310.80 9.28Q311.26 8.70 311.26 8.02L311.26 8.02L311.26 8.02Q311.26 7.11 310.64 6.63L310.64 6.63L310.64 6.63Q310.02 6.15 308.94 6.15L308.94 6.15L308.11 6.18ZM309.48 14.40L306.29 14.40L306.34 14.11L307.41 13.90L307.41 6.51L306.31 6.37L306.37 6.13L306.37 6.13Q308.20 5.83 309.28 5.83L309.28 5.83L309.28 5.83Q310.04 5.83 310.65 6.05L310.65 6.05L310.65 6.05Q311.26 6.27 311.64 6.73L311.64 6.73L311.64 6.73Q312.01 7.19 312.01 7.83L312.01 7.83L312.01 7.83Q312.01 8.57 311.59 9.14L311.59 9.14L311.59 9.14Q311.16 9.72 310.13 10.23L310.13 10.23L310.13 10.23L311.45 12.19L311.45 12.19Q312.16 13.23 312.50 13.58L312.50 13.58L312.50 13.58Q312.85 13.92 313.23 14.05L313.23 14.05L313.56 14.16L313.52 14.42L313.52 14.42Q313.22 14.52 312.88 14.52L312.88 14.52L312.88 14.52Q312.59 14.52 312.34 14.40L312.34 14.40L312.34 14.40Q312.09 14.28 311.85 14.01L311.85 14.01L311.85 14.01Q311.60 13.75 311.42 13.48L311.42 13.48L311.42 13.48Q311.23 13.22 310.96 12.77L310.96 12.77L309.57 10.49L308.11 10.49L308.11 13.95L309.55 14.08L309.48 14.40ZM322.47 6.36L321.25 6.18L321.30 5.89L327.49 5.89L327.28 8.07L326.96 8.03L326.83 6.24L323.18 6.24L323.18 9.89L325.47 9.89L325.73 8.94L326.09 8.89L325.87 11.55L325.52 11.61L325.41 10.26L323.18 10.26L323.18 14.03L327.02 14.03L327.53 12.19L327.81 12.26L327.61 14.40L321.27 14.40L321.31 14.11L322.47 13.90L322.47 6.36ZM335.53 13.60L335.53 13.60L335.73 11.66L336.06 11.71L336.25 13.21L336.25 13.21Q336.48 13.64 337.01 13.89L337.01 13.89L337.01 13.89Q337.54 14.14 338.14 14.14L338.14 14.14L338.14 14.14Q338.82 14.14 339.30 13.74L339.30 13.74L339.30 13.74Q339.78 13.33 339.78 12.61L339.78 12.61L339.78 12.61Q339.78 12.20 339.56 11.83L339.56 11.83L339.56 11.83Q339.35 11.46 339.00 11.18L339.00 11.18L339.00 11.18Q338.66 10.90 338.24 10.63L338.24 10.63L338.24 10.63Q337.82 10.36 337.40 10.07L337.40 10.07L337.40 10.07Q336.98 9.79 336.64 9.48L336.64 9.48L336.64 9.48Q336.29 9.17 336.08 8.75L336.08 8.75L336.08 8.75Q335.86 8.33 335.86 7.84L335.86 7.84L335.86 7.84Q335.86 6.88 336.56 6.29L336.56 6.29L336.56 6.29Q337.25 5.71 338.13 5.71L338.13 5.71L338.13 5.71Q338.72 5.71 339.26 5.90L339.26 5.90L339.26 5.90Q339.80 6.09 340.13 6.46L340.13 6.46L339.90 8.58L339.59 8.53L339.40 6.87L339.40 6.87Q339.22 6.54 338.80 6.32L338.80 6.32L338.80 6.32Q338.39 6.10 337.96 6.10L337.96 6.10L337.96 6.10Q337.36 6.10 336.95 6.48L336.95 6.48L336.95 6.48Q336.53 6.87 336.53 7.52L336.53 7.52L336.53 7.52Q336.53 7.96 336.76 8.35L336.76 8.35L336.76 8.35Q336.98 8.74 337.33 9.03L337.33 9.03L337.33 9.03Q337.68 9.32 338.11 9.61L338.11 9.61L338.11 9.61Q338.53 9.89 338.96 10.17L338.96 10.17L338.96 10.17Q339.38 10.45 339.74 10.75L339.74 10.75L339.74 10.75Q340.09 11.05 340.31 11.45L340.31 11.45L340.31 11.45Q340.53 11.85 340.53 12.29L340.53 12.29L340.53 12.29Q340.53 13.28 339.78 13.93L339.78 13.93L339.78 13.93Q339.03 14.57 337.78 14.57L337.78 14.57L337.78 14.57Q337.07 14.57 336.47 14.30L336.47 14.30L336.47 14.30Q335.87 14.03 335.53 13.60ZM349.47 6.36L348.25 6.18L348.30 5.89L354.49 5.89L354.28 8.07L353.96 8.03L353.83 6.24L350.18 6.24L350.18 9.89L352.47 9.89L352.73 8.94L353.10 8.89L352.87 11.55L352.52 11.61L352.41 10.26L350.18 10.26L350.18 14.03L354.03 14.03L354.53 12.19L354.81 12.26L354.61 14.40L348.27 14.40L348.31 14.11L349.47 13.90L349.47 6.36ZM363.77 6.36L362.50 6.14L362.56 5.89L364.63 5.89L369.35 13.17L369.35 6.33L368.10 6.16L368.14 5.89L371.04 5.89L370.99 6.16L369.85 6.32L369.85 14.44L369.48 14.52L364.27 6.65L364.27 13.95L365.53 14.08L365.46 14.40L362.58 14.40L362.63 14.11L363.77 13.90L363.77 6.36ZM378.75 10.25L378.75 10.25L378.75 10.25Q378.75 9.73 378.86 9.21L378.86 9.21L378.86 9.21Q378.96 8.68 379.17 8.17L379.17 8.17L379.17 8.17Q379.37 7.66 379.70 7.22L379.70 7.22L379.70 7.22Q380.02 6.77 380.44 6.44L380.44 6.44L380.44 6.44Q380.85 6.10 381.41 5.90L381.41 5.90L381.41 5.90Q381.96 5.71 382.60 5.71L382.60 5.71L382.60 5.71Q384.02 5.71 384.92 6.39L384.92 6.39L384.71 8.70L384.39 8.64L384.19 6.87L384.19 6.87Q383.59 6.09 382.28 6.09L382.28 6.09L382.28 6.09Q381.13 6.09 380.30 7.19L380.30 7.19L380.30 7.19Q379.48 8.30 379.48 10.00L379.48 10.00L379.48 10.00Q379.48 11.92 380.28 12.97L380.28 12.97L380.28 12.97Q381.08 14.03 382.56 14.03L382.56 14.03L382.56 14.03Q383.29 14.03 383.98 13.65L383.98 13.65L383.98 13.65Q384.67 13.28 385.14 12.74L385.14 12.74L385.30 12.99L385.30 12.99Q385.13 13.25 384.84 13.51L384.84 13.51L384.84 13.51Q384.56 13.77 384.17 14.02L384.17 14.02L384.17 14.02Q383.78 14.27 383.28 14.42L383.28 14.42L383.28 14.42Q382.77 14.57 382.25 14.57L382.25 14.57L382.25 14.57Q380.67 14.57 379.71 13.40L379.71 13.40L379.71 13.40Q378.75 12.22 378.75 10.25ZM394.20 6.36L392.98 6.18L393.03 5.89L399.22 5.89L399.01 8.07L398.69 8.03L398.56 6.24L394.91 6.24L394.91 9.89L397.20 9.89L397.46 8.94L397.82 8.89L397.60 11.55L397.25 11.61L397.14 10.26L394.91 10.26L394.91 14.03L398.75 14.03L399.26 12.19L399.54 12.26L399.33 14.40L393.00 14.40L393.04 14.11L394.20 13.90L394.20 6.36Z"></path></g></svg>