<svg data-v-423bf9ae="" xmlns="http://www.w3.org/2000/svg" viewBox="0 0 237.3251637460392 60" class="font"><!----><!----><!----><g data-v-423bf9ae="" id="6f2e1dd9-d31d-4d83-85f7-8c4863aec8c2" fill="black" transform="matrix(5.244754999912469,0,0,5.244754999912469,-4.93007185976947,-11.905593272928385)"><path d="M0.94 2.51L0.94 11.37L3.89 11.37C6.12 11.37 7.64 9.59 7.64 6.93C7.64 4.27 6.12 2.51 3.89 2.51ZM2.10 2.97L3.65 2.97C5.33 2.97 6.41 4.35 6.41 6.94C6.41 9.52 5.33 10.91 3.65 10.91L2.10 10.91ZM10.29 3.14L10.29 2.55C10.29 2.41 10.23 2.27 9.88 2.27L9.42 2.27C9.07 2.27 9.02 2.44 9.02 2.55L9.02 3.14C9.02 3.25 9.07 3.43 9.42 3.43L9.88 3.43C10.23 3.43 10.29 3.28 10.29 3.14ZM9.07 11.37L10.23 11.37L10.23 4.83L9.07 4.83ZM17.70 4.84L16.91 4.72L16.59 5.59L15.32 5.07C14.81 4.86 14.35 4.72 13.93 4.72C12.57 4.72 11.69 6.08 11.69 8.11C11.69 10.14 12.57 11.48 13.93 11.48C14.35 11.48 14.81 11.33 15.32 11.13L16.52 10.64L16.52 11.76C16.52 12.71 15.99 13.23 14.99 13.23C14.17 13.23 13.09 13.01 12.59 13.01L12.59 13.69L15.47 13.71C16.81 13.71 17.70 12.88 17.70 11.68ZM16.52 5.95L16.52 10.26L15.09 10.72C14.71 10.85 14.48 10.89 14.27 10.89C13.41 10.89 12.91 9.83 12.91 8.11C12.91 6.38 13.41 5.32 14.27 5.32C14.48 5.32 14.71 5.35 15.09 5.47ZM20.34 7.41C20.48 5.96 21.03 5.18 22.22 5.18C23.37 5.18 24.05 5.94 24.05 7.38ZM20.30 7.87L25.23 7.95L25.23 7.42C25.23 5.80 24.05 4.72 22.30 4.72C20.37 4.72 19.08 6.06 19.08 8.08C19.08 10.12 20.40 11.48 22.37 11.48C23.49 11.48 24.68 10.96 25.06 10.78L24.82 10.15L23.63 10.70C23.32 10.84 22.82 11.02 22.48 11.02C21.07 11.02 20.30 9.97 20.30 8.04ZM26.67 11.37L27.83 11.37L27.83 5.94L29.55 5.39C29.75 5.33 30.14 5.25 30.38 5.25C31.01 5.25 31.33 5.68 31.33 6.48L31.33 11.37L32.49 11.37L32.49 6.34C32.49 5.36 31.78 4.72 30.70 4.72C30.30 4.72 29.86 4.76 29.29 4.98L27.79 5.57L27.45 4.77L26.67 4.83ZM39.06 5.10C38.68 4.91 37.67 4.72 37.02 4.72C35.10 4.72 33.82 6.08 33.82 8.11C33.82 10.14 35.10 11.48 37.02 11.48C37.67 11.48 38.68 11.28 39.06 11.10L38.79 10.47L37.83 10.85C37.65 10.92 37.28 11.02 37.13 11.02C35.84 11.02 35.07 10.00 35.07 8.11C35.07 6.22 35.84 5.18 37.13 5.18C37.28 5.18 37.65 5.28 37.83 5.35L38.79 5.73ZM39.83 4.83L42.55 11.45C42.66 11.73 42.77 12.11 42.77 12.40C42.77 12.57 42.73 12.75 42.62 12.88C42.45 13.09 42.14 13.23 41.66 13.23L41.61 13.23C41.12 13.23 40.67 13.01 40.35 13.01L40.35 13.71L41.66 13.71C42.77 13.71 43.12 13.19 43.43 12.35L46.19 4.83L45.21 4.72C45.21 5.01 44.83 7.15 44.02 9.39L43.46 10.96L43.43 10.96C43.40 10.88 43.39 10.72 43.23 10.36L41.05 4.72Z"></path></g><!----><!----></svg>